<mxfile host="app.diagrams.net" modified="2022-11-11T15:25:43.586Z" agent="5.0 (Macintosh; Intel Mac OS X 10_14_6) AppleWebKit/537.36 (KHTML, like Gecko) Chrome/106.0.0.0 Safari/537.36" etag="xNq6fZguNPrRrHXgkHGP" version="20.4.1" type="github">
  <diagram id="_k_50HLZ2cVsNE51vVnx" name="第 1 页">
    <mxGraphModel dx="1720" dy="2140" grid="1" gridSize="10" guides="1" tooltips="1" connect="1" arrows="1" fold="1" page="1" pageScale="1" pageWidth="827" pageHeight="1169" math="0" shadow="0">
      <root>
        <mxCell id="0" />
        <mxCell id="1" parent="0" />
        <mxCell id="ANzmuTLpEcf3TSJyT-yu-1" value="" style="rounded=1;whiteSpace=wrap;html=1;strokeWidth=2;fillWeight=4;hachureGap=8;hachureAngle=45;fillColor=#d5e8d4;sketch=0;shadow=0;glass=0;strokeColor=#82b366;fontStyle=1;fontSize=20;" vertex="1" parent="1">
          <mxGeometry x="360" y="120" width="120" height="200" as="geometry" />
        </mxCell>
        <mxCell id="ANzmuTLpEcf3TSJyT-yu-2" value="" style="rounded=1;whiteSpace=wrap;html=1;strokeWidth=2;fillWeight=4;hachureGap=8;hachureAngle=45;fillColor=#d5e8d4;sketch=0;shadow=0;glass=0;strokeColor=#82b366;fontStyle=1;fontSize=20;" vertex="1" parent="1">
          <mxGeometry x="560" y="120" width="120" height="200" as="geometry" />
        </mxCell>
        <mxCell id="ANzmuTLpEcf3TSJyT-yu-4" value="" style="rounded=1;whiteSpace=wrap;html=1;strokeWidth=2;fillWeight=4;hachureGap=8;hachureAngle=45;fillColor=#d5e8d4;sketch=0;shadow=0;glass=0;strokeColor=#82b366;fontStyle=1;fontSize=20;" vertex="1" parent="1">
          <mxGeometry x="760" y="120" width="120" height="200" as="geometry" />
        </mxCell>
        <mxCell id="ANzmuTLpEcf3TSJyT-yu-5" value="" style="rounded=1;whiteSpace=wrap;html=1;strokeWidth=2;fillWeight=4;hachureGap=8;hachureAngle=45;fillColor=#d5e8d4;sketch=0;shadow=0;glass=0;strokeColor=#82b366;fontStyle=1;fontSize=20;" vertex="1" parent="1">
          <mxGeometry x="960" y="120" width="120" height="200" as="geometry" />
        </mxCell>
        <mxCell id="ANzmuTLpEcf3TSJyT-yu-6" style="edgeStyle=orthogonalEdgeStyle;rounded=0;orthogonalLoop=1;jettySize=auto;html=1;exitX=1;exitY=0.5;exitDx=0;exitDy=0;entryX=-0.008;entryY=0.2;entryDx=0;entryDy=0;entryPerimeter=0;strokeWidth=2;sketch=1;shadow=1;fontStyle=1;fontSize=20;" edge="1" parent="1" source="ANzmuTLpEcf3TSJyT-yu-7" target="ANzmuTLpEcf3TSJyT-yu-2">
          <mxGeometry relative="1" as="geometry" />
        </mxCell>
        <mxCell id="ANzmuTLpEcf3TSJyT-yu-7" value="next" style="rounded=1;whiteSpace=wrap;html=1;strokeWidth=2;fillWeight=4;hachureGap=8;hachureAngle=45;fillColor=#dae8fc;sketch=0;shadow=0;glass=0;strokeColor=#6c8ebf;fontStyle=1;fontSize=20;" vertex="1" parent="1">
          <mxGeometry x="380" y="140" width="80" height="40" as="geometry" />
        </mxCell>
        <mxCell id="ANzmuTLpEcf3TSJyT-yu-8" value="prev" style="rounded=1;whiteSpace=wrap;html=1;strokeWidth=2;fillWeight=4;hachureGap=8;hachureAngle=45;fillColor=#f8cecc;sketch=0;shadow=0;glass=0;strokeColor=#b85450;fontStyle=1;fontSize=20;" vertex="1" parent="1">
          <mxGeometry x="380" y="200" width="80" height="40" as="geometry" />
        </mxCell>
        <mxCell id="ANzmuTLpEcf3TSJyT-yu-9" style="edgeStyle=orthogonalEdgeStyle;rounded=1;sketch=1;orthogonalLoop=1;jettySize=auto;html=1;exitX=0.5;exitY=1;exitDx=0;exitDy=0;entryX=0.5;entryY=0;entryDx=0;entryDy=0;shadow=1;strokeWidth=2;fontStyle=1;fontSize=20;" edge="1" parent="1" source="ANzmuTLpEcf3TSJyT-yu-10" target="ANzmuTLpEcf3TSJyT-yu-29">
          <mxGeometry relative="1" as="geometry" />
        </mxCell>
        <mxCell id="ANzmuTLpEcf3TSJyT-yu-10" value="ctl" style="rounded=1;whiteSpace=wrap;html=1;strokeWidth=2;fillWeight=4;hachureGap=8;hachureAngle=45;fillColor=#fff2cc;sketch=0;shadow=0;glass=0;strokeColor=#d6b656;fontStyle=1;fontSize=20;" vertex="1" parent="1">
          <mxGeometry x="380" y="260" width="80" height="40" as="geometry" />
        </mxCell>
        <mxCell id="ANzmuTLpEcf3TSJyT-yu-11" style="edgeStyle=orthogonalEdgeStyle;rounded=0;orthogonalLoop=1;jettySize=auto;html=1;exitX=1;exitY=0.5;exitDx=0;exitDy=0;entryX=-0.025;entryY=0.2;entryDx=0;entryDy=0;entryPerimeter=0;strokeWidth=2;sketch=1;shadow=1;fontStyle=1;fontSize=20;" edge="1" parent="1" source="ANzmuTLpEcf3TSJyT-yu-12" target="ANzmuTLpEcf3TSJyT-yu-4">
          <mxGeometry relative="1" as="geometry" />
        </mxCell>
        <mxCell id="ANzmuTLpEcf3TSJyT-yu-12" value="next" style="rounded=1;whiteSpace=wrap;html=1;strokeWidth=2;fillWeight=4;hachureGap=8;hachureAngle=45;fillColor=#dae8fc;sketch=0;shadow=0;glass=0;strokeColor=#6c8ebf;fontStyle=1;fontSize=20;" vertex="1" parent="1">
          <mxGeometry x="580" y="140" width="80" height="40" as="geometry" />
        </mxCell>
        <mxCell id="ANzmuTLpEcf3TSJyT-yu-13" style="edgeStyle=orthogonalEdgeStyle;rounded=1;orthogonalLoop=1;jettySize=auto;html=1;entryX=1;entryY=0.5;entryDx=0;entryDy=0;strokeWidth=2;sketch=1;shadow=1;fontStyle=1;fontSize=20;" edge="1" parent="1" source="ANzmuTLpEcf3TSJyT-yu-14" target="ANzmuTLpEcf3TSJyT-yu-1">
          <mxGeometry relative="1" as="geometry" />
        </mxCell>
        <mxCell id="ANzmuTLpEcf3TSJyT-yu-14" value="prev" style="rounded=1;whiteSpace=wrap;html=1;strokeWidth=2;fillWeight=4;hachureGap=8;hachureAngle=45;fillColor=#f8cecc;sketch=0;shadow=0;glass=0;strokeColor=#b85450;fontStyle=1;fontSize=20;" vertex="1" parent="1">
          <mxGeometry x="580" y="200" width="80" height="40" as="geometry" />
        </mxCell>
        <mxCell id="ANzmuTLpEcf3TSJyT-yu-15" style="edgeStyle=orthogonalEdgeStyle;rounded=1;sketch=1;orthogonalLoop=1;jettySize=auto;html=1;exitX=0.5;exitY=1;exitDx=0;exitDy=0;entryX=0.5;entryY=0;entryDx=0;entryDy=0;shadow=1;strokeWidth=2;fontStyle=1;fontSize=20;" edge="1" parent="1" source="ANzmuTLpEcf3TSJyT-yu-16" target="ANzmuTLpEcf3TSJyT-yu-31">
          <mxGeometry relative="1" as="geometry" />
        </mxCell>
        <mxCell id="ANzmuTLpEcf3TSJyT-yu-16" value="ctl" style="rounded=1;whiteSpace=wrap;html=1;strokeWidth=2;fillWeight=4;hachureGap=8;hachureAngle=45;fillColor=#fff2cc;sketch=0;shadow=0;glass=0;strokeColor=#d6b656;fontStyle=1;fontSize=20;" vertex="1" parent="1">
          <mxGeometry x="580" y="260" width="80" height="40" as="geometry" />
        </mxCell>
        <mxCell id="ANzmuTLpEcf3TSJyT-yu-17" style="edgeStyle=orthogonalEdgeStyle;rounded=0;orthogonalLoop=1;jettySize=auto;html=1;entryX=0;entryY=0.2;entryDx=0;entryDy=0;entryPerimeter=0;strokeWidth=2;sketch=1;shadow=1;fontStyle=1;fontSize=20;" edge="1" parent="1" source="ANzmuTLpEcf3TSJyT-yu-18" target="ANzmuTLpEcf3TSJyT-yu-5">
          <mxGeometry relative="1" as="geometry" />
        </mxCell>
        <mxCell id="ANzmuTLpEcf3TSJyT-yu-18" value="next" style="rounded=1;whiteSpace=wrap;html=1;strokeWidth=2;fillWeight=4;hachureGap=8;hachureAngle=45;fillColor=#dae8fc;sketch=0;shadow=0;glass=0;strokeColor=#6c8ebf;fontStyle=1;fontSize=20;" vertex="1" parent="1">
          <mxGeometry x="780" y="140" width="80" height="40" as="geometry" />
        </mxCell>
        <mxCell id="ANzmuTLpEcf3TSJyT-yu-19" style="edgeStyle=orthogonalEdgeStyle;rounded=0;orthogonalLoop=1;jettySize=auto;html=1;entryX=1;entryY=0.5;entryDx=0;entryDy=0;strokeWidth=2;sketch=1;shadow=1;fontStyle=1;fontSize=20;" edge="1" parent="1" source="ANzmuTLpEcf3TSJyT-yu-20" target="ANzmuTLpEcf3TSJyT-yu-2">
          <mxGeometry relative="1" as="geometry" />
        </mxCell>
        <mxCell id="ANzmuTLpEcf3TSJyT-yu-20" value="prev" style="rounded=1;whiteSpace=wrap;html=1;strokeWidth=2;fillWeight=4;hachureGap=8;hachureAngle=45;fillColor=#f8cecc;sketch=0;shadow=0;glass=0;strokeColor=#b85450;fontStyle=1;fontSize=20;" vertex="1" parent="1">
          <mxGeometry x="780" y="200" width="80" height="40" as="geometry" />
        </mxCell>
        <mxCell id="ANzmuTLpEcf3TSJyT-yu-21" style="edgeStyle=orthogonalEdgeStyle;rounded=1;sketch=1;orthogonalLoop=1;jettySize=auto;html=1;exitX=0.5;exitY=1;exitDx=0;exitDy=0;entryX=0.5;entryY=0;entryDx=0;entryDy=0;shadow=1;strokeWidth=2;fontStyle=1;fontSize=20;" edge="1" parent="1" source="ANzmuTLpEcf3TSJyT-yu-22" target="ANzmuTLpEcf3TSJyT-yu-33">
          <mxGeometry relative="1" as="geometry" />
        </mxCell>
        <mxCell id="ANzmuTLpEcf3TSJyT-yu-22" value="ctl" style="rounded=1;whiteSpace=wrap;html=1;strokeWidth=2;fillWeight=4;hachureGap=8;hachureAngle=45;fillColor=#fff2cc;sketch=0;shadow=0;glass=0;strokeColor=#d6b656;fontStyle=1;fontSize=20;" vertex="1" parent="1">
          <mxGeometry x="780" y="260" width="80" height="40" as="geometry" />
        </mxCell>
        <mxCell id="ANzmuTLpEcf3TSJyT-yu-23" value="next" style="rounded=1;whiteSpace=wrap;html=1;strokeWidth=2;fillWeight=4;hachureGap=8;hachureAngle=45;fillColor=#dae8fc;sketch=0;shadow=0;glass=0;strokeColor=#6c8ebf;fontStyle=1;fontSize=20;" vertex="1" parent="1">
          <mxGeometry x="980" y="140" width="80" height="40" as="geometry" />
        </mxCell>
        <mxCell id="ANzmuTLpEcf3TSJyT-yu-24" style="edgeStyle=orthogonalEdgeStyle;rounded=0;orthogonalLoop=1;jettySize=auto;html=1;entryX=1;entryY=0.5;entryDx=0;entryDy=0;strokeWidth=2;sketch=1;shadow=1;fontStyle=1;fontSize=20;" edge="1" parent="1" source="ANzmuTLpEcf3TSJyT-yu-25" target="ANzmuTLpEcf3TSJyT-yu-4">
          <mxGeometry relative="1" as="geometry" />
        </mxCell>
        <mxCell id="ANzmuTLpEcf3TSJyT-yu-25" value="prev" style="rounded=1;whiteSpace=wrap;html=1;strokeWidth=2;fillWeight=4;hachureGap=8;hachureAngle=45;fillColor=#f8cecc;sketch=0;shadow=0;glass=0;strokeColor=#b85450;fontStyle=1;fontSize=20;" vertex="1" parent="1">
          <mxGeometry x="980" y="200" width="80" height="40" as="geometry" />
        </mxCell>
        <mxCell id="ANzmuTLpEcf3TSJyT-yu-26" style="edgeStyle=orthogonalEdgeStyle;rounded=1;sketch=1;orthogonalLoop=1;jettySize=auto;html=1;exitX=0.5;exitY=1;exitDx=0;exitDy=0;shadow=1;strokeWidth=2;fontStyle=1;fontSize=20;" edge="1" parent="1" source="ANzmuTLpEcf3TSJyT-yu-27" target="ANzmuTLpEcf3TSJyT-yu-35">
          <mxGeometry relative="1" as="geometry" />
        </mxCell>
        <mxCell id="ANzmuTLpEcf3TSJyT-yu-27" value="ctl" style="rounded=1;whiteSpace=wrap;html=1;strokeWidth=2;fillWeight=4;hachureGap=8;hachureAngle=45;fillColor=#fff2cc;sketch=0;shadow=0;glass=0;strokeColor=#d6b656;fontStyle=1;fontSize=20;" vertex="1" parent="1">
          <mxGeometry x="980" y="260" width="80" height="40" as="geometry" />
        </mxCell>
        <mxCell id="ANzmuTLpEcf3TSJyT-yu-28" style="edgeStyle=orthogonalEdgeStyle;rounded=1;sketch=1;orthogonalLoop=1;jettySize=auto;html=1;exitX=0.5;exitY=1;exitDx=0;exitDy=0;shadow=1;strokeWidth=2;fontStyle=1;fontSize=20;" edge="1" parent="1" source="ANzmuTLpEcf3TSJyT-yu-29" target="ANzmuTLpEcf3TSJyT-yu-42">
          <mxGeometry relative="1" as="geometry" />
        </mxCell>
        <mxCell id="ANzmuTLpEcf3TSJyT-yu-29" value="控制块" style="rounded=1;whiteSpace=wrap;html=1;strokeWidth=2;fillWeight=4;hachureGap=8;hachureAngle=45;fillColor=#ffe6cc;sketch=0;shadow=0;glass=0;strokeColor=#d79b00;fontStyle=1;fontSize=20;" vertex="1" parent="1">
          <mxGeometry x="360" y="360" width="120" height="40" as="geometry" />
        </mxCell>
        <mxCell id="ANzmuTLpEcf3TSJyT-yu-30" style="edgeStyle=orthogonalEdgeStyle;rounded=1;sketch=1;orthogonalLoop=1;jettySize=auto;html=1;exitX=0.5;exitY=1;exitDx=0;exitDy=0;shadow=1;strokeWidth=2;fontStyle=1;fontSize=20;" edge="1" parent="1" source="ANzmuTLpEcf3TSJyT-yu-31" target="ANzmuTLpEcf3TSJyT-yu-43">
          <mxGeometry relative="1" as="geometry" />
        </mxCell>
        <mxCell id="ANzmuTLpEcf3TSJyT-yu-31" value="控制块" style="rounded=1;whiteSpace=wrap;html=1;strokeWidth=2;fillWeight=4;hachureGap=8;hachureAngle=45;fillColor=#ffe6cc;sketch=0;shadow=0;glass=0;strokeColor=#d79b00;fontStyle=1;fontSize=20;" vertex="1" parent="1">
          <mxGeometry x="560" y="360" width="120" height="40" as="geometry" />
        </mxCell>
        <mxCell id="ANzmuTLpEcf3TSJyT-yu-32" style="edgeStyle=orthogonalEdgeStyle;rounded=1;sketch=1;orthogonalLoop=1;jettySize=auto;html=1;exitX=0.5;exitY=1;exitDx=0;exitDy=0;shadow=1;strokeWidth=2;fontStyle=1;fontSize=20;" edge="1" parent="1" source="ANzmuTLpEcf3TSJyT-yu-33" target="ANzmuTLpEcf3TSJyT-yu-44">
          <mxGeometry relative="1" as="geometry" />
        </mxCell>
        <mxCell id="ANzmuTLpEcf3TSJyT-yu-33" value="控制块" style="rounded=1;whiteSpace=wrap;html=1;strokeWidth=2;fillWeight=4;hachureGap=8;hachureAngle=45;fillColor=#ffe6cc;sketch=0;shadow=0;glass=0;strokeColor=#d79b00;fontStyle=1;fontSize=20;" vertex="1" parent="1">
          <mxGeometry x="760" y="360" width="120" height="40" as="geometry" />
        </mxCell>
        <mxCell id="ANzmuTLpEcf3TSJyT-yu-34" style="edgeStyle=orthogonalEdgeStyle;rounded=1;sketch=1;orthogonalLoop=1;jettySize=auto;html=1;exitX=0.5;exitY=1;exitDx=0;exitDy=0;shadow=1;strokeWidth=2;fontStyle=1;fontSize=20;" edge="1" parent="1" source="ANzmuTLpEcf3TSJyT-yu-35" target="ANzmuTLpEcf3TSJyT-yu-45">
          <mxGeometry relative="1" as="geometry" />
        </mxCell>
        <mxCell id="ANzmuTLpEcf3TSJyT-yu-35" value="控制块" style="rounded=1;whiteSpace=wrap;html=1;strokeWidth=2;fillWeight=4;hachureGap=8;hachureAngle=45;fillColor=#ffe6cc;sketch=0;shadow=0;glass=0;strokeColor=#d79b00;fontStyle=1;fontSize=20;" vertex="1" parent="1">
          <mxGeometry x="960" y="360" width="120" height="40" as="geometry" />
        </mxCell>
        <mxCell id="ANzmuTLpEcf3TSJyT-yu-36" value="" style="rounded=1;whiteSpace=wrap;html=1;strokeWidth=2;fillWeight=4;hachureGap=8;hachureAngle=45;fillColor=#fad7ac;sketch=0;shadow=0;glass=0;strokeColor=#b46504;fontStyle=1;fontSize=20;" vertex="1" parent="1">
          <mxGeometry x="1160" width="120" height="200" as="geometry" />
        </mxCell>
        <mxCell id="ANzmuTLpEcf3TSJyT-yu-37" value="" style="edgeStyle=orthogonalEdgeStyle;rounded=1;sketch=1;orthogonalLoop=1;jettySize=auto;html=1;shadow=1;strokeWidth=2;fontStyle=1;fontSize=20;" edge="1" parent="1" source="ANzmuTLpEcf3TSJyT-yu-38" target="ANzmuTLpEcf3TSJyT-yu-1">
          <mxGeometry relative="1" as="geometry" />
        </mxCell>
        <mxCell id="ANzmuTLpEcf3TSJyT-yu-38" value="start" style="rounded=1;whiteSpace=wrap;html=1;strokeWidth=2;fillWeight=4;hachureGap=8;hachureAngle=45;fillColor=#dae8fc;sketch=0;shadow=0;glass=0;strokeColor=#6c8ebf;fontStyle=1;fontSize=20;" vertex="1" parent="1">
          <mxGeometry x="1180" y="20" width="80" height="40" as="geometry" />
        </mxCell>
        <mxCell id="ANzmuTLpEcf3TSJyT-yu-39" style="edgeStyle=orthogonalEdgeStyle;rounded=1;sketch=1;orthogonalLoop=1;jettySize=auto;html=1;entryX=0.5;entryY=0;entryDx=0;entryDy=0;shadow=1;strokeWidth=2;exitX=0;exitY=0.5;exitDx=0;exitDy=0;fontStyle=1;fontSize=20;" edge="1" parent="1" source="ANzmuTLpEcf3TSJyT-yu-40" target="ANzmuTLpEcf3TSJyT-yu-5">
          <mxGeometry relative="1" as="geometry">
            <Array as="points">
              <mxPoint x="1180" y="100" />
              <mxPoint x="1020" y="100" />
            </Array>
          </mxGeometry>
        </mxCell>
        <mxCell id="ANzmuTLpEcf3TSJyT-yu-40" value="end" style="rounded=1;whiteSpace=wrap;html=1;strokeWidth=2;fillWeight=4;hachureGap=8;hachureAngle=45;fillColor=#f8cecc;sketch=0;shadow=0;glass=0;strokeColor=#b85450;fontStyle=1;fontSize=20;" vertex="1" parent="1">
          <mxGeometry x="1180" y="80" width="80" height="40" as="geometry" />
        </mxCell>
        <mxCell id="ANzmuTLpEcf3TSJyT-yu-41" value="count" style="rounded=1;whiteSpace=wrap;html=1;strokeWidth=2;fillWeight=4;hachureGap=8;hachureAngle=45;fillColor=#fff2cc;sketch=0;shadow=0;glass=0;strokeColor=#d6b656;fontStyle=1;fontSize=20;" vertex="1" parent="1">
          <mxGeometry x="1180" y="140" width="80" height="40" as="geometry" />
        </mxCell>
        <mxCell id="ANzmuTLpEcf3TSJyT-yu-42" value="缓冲页" style="rounded=1;whiteSpace=wrap;html=1;strokeWidth=2;fillWeight=4;hachureGap=8;hachureAngle=45;fillColor=#b1ddf0;sketch=1;shadow=0;glass=0;strokeColor=#10739e;fontStyle=1;fontSize=20;" vertex="1" parent="1">
          <mxGeometry x="360" y="440" width="120" height="120" as="geometry" />
        </mxCell>
        <mxCell id="ANzmuTLpEcf3TSJyT-yu-43" value="缓冲页" style="rounded=1;whiteSpace=wrap;html=1;strokeWidth=2;fillWeight=4;hachureGap=8;hachureAngle=45;fillColor=#b1ddf0;sketch=1;shadow=0;glass=0;strokeColor=#10739e;fontStyle=1;fontSize=20;" vertex="1" parent="1">
          <mxGeometry x="560" y="440" width="120" height="120" as="geometry" />
        </mxCell>
        <mxCell id="ANzmuTLpEcf3TSJyT-yu-44" value="缓冲页" style="rounded=1;whiteSpace=wrap;html=1;strokeWidth=2;fillWeight=4;hachureGap=8;hachureAngle=45;fillColor=#b1ddf0;sketch=1;shadow=0;glass=0;strokeColor=#10739e;fontStyle=1;fontSize=20;" vertex="1" parent="1">
          <mxGeometry x="760" y="440" width="120" height="120" as="geometry" />
        </mxCell>
        <mxCell id="ANzmuTLpEcf3TSJyT-yu-45" value="缓冲页" style="rounded=1;whiteSpace=wrap;html=1;strokeWidth=2;fillWeight=4;hachureGap=8;hachureAngle=45;fillColor=#b1ddf0;sketch=1;shadow=0;glass=0;strokeColor=#10739e;fontStyle=1;fontSize=20;" vertex="1" parent="1">
          <mxGeometry x="960" y="440" width="120" height="120" as="geometry" />
        </mxCell>
        <mxCell id="ANzmuTLpEcf3TSJyT-yu-46" value="Flush链表" style="text;html=1;align=center;verticalAlign=middle;resizable=0;points=[];autosize=1;strokeColor=none;fillColor=none;fontSize=23;fontStyle=1" vertex="1" parent="1">
          <mxGeometry x="349" y="-40" width="130" height="40" as="geometry" />
        </mxCell>
      </root>
    </mxGraphModel>
  </diagram>
</mxfile>
